<svg 
 xmlns="http://www.w3.org/2000/svg"
 xmlns:xlink="http://www.w3.org/1999/xlink"
 width="24px" height="24px">
<path fill-rule="evenodd"  fill="rgb(206, 206, 206)"
 d="M12.000,24.000 C5.383,24.000 -0.000,18.617 -0.000,12.000 C-0.000,5.383 5.383,-0.000 12.000,-0.000 C18.617,-0.000 24.000,5.383 24.000,12.000 C24.000,18.617 18.617,24.000 12.000,24.000 ZM12.000,2.553 C6.791,2.553 2.553,6.791 2.553,12.000 C2.553,17.209 6.791,21.447 12.000,21.447 C17.209,21.447 21.447,17.209 21.447,12.000 C21.447,6.791 17.209,2.553 12.000,2.553 ZM18.254,13.606 L11.873,13.606 C11.328,13.606 10.885,13.163 10.885,12.617 L10.885,5.145 C10.885,4.599 11.328,4.157 11.873,4.157 C12.419,4.157 12.861,4.599 12.861,5.145 L12.861,11.629 L18.254,11.629 C18.800,11.629 19.242,12.072 19.242,12.617 C19.242,13.163 18.800,13.606 18.254,13.606 Z"/>
</svg>
