<svg xmlns="http://www.w3.org/2000/svg" width="153" height="161">
    <path fill="#FFF" fill-rule="evenodd" d="M104.489 63.975c2.99 3.349 1.404 8.684-2.903 9.861a6.05 6.05 0 0 1-4.018 8.059c1.678 4.25-1.694 8.272-6.024 8.272H78.403c-7.626 0-12.63-1.932-16.57-3.25V56.685c2.574-1.29 4.537-2.124 6.833-4.427 3.411-3.422 5.22-11.832 5.22-16.491a2.01 2.01 0 0 1 2.009-2.014h1.657c4.559 0 8.333 3.663 8.386 8.235.031 2.761-.683 9.522-2.014 11.913h15.661c3.137 0 6.048 2.215 6.402 5.34a6.048 6.048 0 0 1-1.498 4.734zm-8.506-26.327h-4.018a2.011 2.011 0 0 1-2.009-2.015c0-1.114.899-2.015 2.009-2.015h4.018c1.11 0 2.008.901 2.009 2.015a2.011 2.011 0 0 1-2.009 2.015zm-8.248-9.173a2.008 2.008 0 0 1-2.695.901 2.016 2.016 0 0 1-.898-2.703l2.008-4.03a2.012 2.012 0 0 1 2.696-.901 2.017 2.017 0 0 1 .898 2.703l-2.009 4.03zm-12.951.901a2.006 2.006 0 0 1-2.695-.901l-2.009-4.03a2.01 2.01 0 1 1 3.594-1.802l2.009 4.03a2.017 2.017 0 0 1-.899 2.703zm-6.925 8.272h-4.017a2.01 2.01 0 0 1-2.009-2.015 2.01 2.01 0 0 1 2.009-2.015h4.017a2.01 2.01 0 0 1 2.009 2.015 2.01 2.01 0 0 1-2.009 2.015zM55.806 90.167h-8.035a2.012 2.012 0 0 1-2.009-2.015V55.915c0-1.112.9-2.014 2.009-2.014h8.035c1.11 0 2.009.902 2.009 2.014v32.237a2.012 2.012 0 0 1-2.009 2.015z"/>
</svg>
