<svg xmlns="http://www.w3.org/2000/svg" width="151" height="148">
    <path fill="#FFF" fill-rule="evenodd" d="M103.465 47.325a6.118 6.118 0 0 1 1.491 4.759c-.353 3.142-3.25 5.37-6.372 5.37H82.996c1.325 2.403 2.036 9.201 2.004 11.978-.052 4.596-3.809 8.28-8.346 8.28h-1.65c-1.105 0-1.999-.906-1.999-2.026 0-4.684-1.801-13.14-5.196-16.58-2.286-2.316-4.239-3.155-6.801-4.452V24.257c3.922-1.325 8.902-3.268 16.493-3.268H90.58c4.31 0 7.666 4.044 5.996 8.317 2.544.702 4.421 3.066 4.421 5.864 0 .789-.151 1.545-.422 2.239 4.288 1.184 5.866 6.548 2.89 9.916zM55.009 57.454h-7.997c-1.105 0-2-.907-2-2.026V23.015c0-1.119.895-2.026 2-2.026h7.997c1.104 0 2 .907 2 2.026v32.413c0 1.119-.895 2.026-2 2.026z"/>
</svg>
